<svg width="25" height="25" viewBox="0 0 25 25" fill="none" xmlns="http://www.w3.org/2000/svg">
<g clip-path="url(#clip0_601_2)">
<path d="M5.72667 3.85138H24.0403C24.3726 3.85138 24.6267 4.10546 24.6267 4.43773V15.8324C24.6267 16.1647 24.3726 16.4188 24.0403 16.4188H5.72667C5.3944 16.4188 5.14032 16.1647 5.14032 15.8324V4.43773C5.14032 4.10546 5.3944 3.85138 5.72667 3.85138Z" fill="#9DBE87"/>
<path d="M24.0403 16.8097H5.7267C5.17944 16.8097 4.74945 16.3797 4.74945 15.8324V4.4377C4.74945 3.89044 5.17944 3.46045 5.7267 3.46045H24.0403C24.5876 3.46045 25.0176 3.89044 25.0176 4.4377V15.8324C25.0176 16.3601 24.5876 16.8097 24.0403 16.8097ZM5.7267 4.24225C5.60943 4.24225 5.53125 4.32043 5.53125 4.4377V15.8324C5.53125 15.9497 5.60943 16.0279 5.7267 16.0279H24.0403C24.1576 16.0279 24.2358 15.9497 24.2358 15.8324V4.4377C24.2358 4.32043 24.1576 4.24225 24.0403 4.24225H5.7267Z" fill="#131313"/>
<path d="M4.06535 5.5127H22.3985C22.7308 5.5127 22.9849 5.76678 22.9849 6.09904V17.4938C22.9849 17.826 22.7308 18.0801 22.3985 18.0801H4.06535C3.73309 18.0801 3.479 17.826 3.479 17.4938V6.09904C3.479 5.76678 3.73309 5.5127 4.06535 5.5127Z" fill="#9DBE87"/>
<path d="M22.379 18.471H4.06538C3.51812 18.471 3.08813 18.041 3.08813 17.4937V6.09901C3.08813 5.55175 3.51812 5.12177 4.06538 5.12177H22.3986C22.9458 5.12177 23.3758 5.55175 23.3758 6.09901V17.4937C23.3563 18.0214 22.9263 18.471 22.379 18.471ZM4.06538 5.90356C3.94811 5.90356 3.86993 5.98174 3.86993 6.09901V17.4937C3.86993 17.611 3.94811 17.6892 4.06538 17.6892H22.3986C22.5158 17.6892 22.594 17.611 22.594 17.4937V6.09901C22.594 5.98174 22.5158 5.90356 22.3986 5.90356H4.06538Z" fill="#131313"/>
<path d="M2.54082 7.13489H20.874C21.2063 7.13489 21.4603 7.38897 21.4603 7.72124V19.116C21.4603 19.4482 21.2063 19.7023 20.874 19.7023H2.54082C2.20855 19.7023 1.95447 19.4482 1.95447 19.116V7.72124C1.95447 7.40852 2.20855 7.13489 2.54082 7.13489Z" fill="#9DBE87"/>
<path d="M20.874 20.0932H2.54085C1.99359 20.0932 1.5636 19.6632 1.5636 19.116V7.72127C1.5636 7.17401 1.99359 6.74402 2.54085 6.74402H20.874C21.4213 6.74402 21.8513 7.17401 21.8513 7.72127V19.116C21.8513 19.6437 21.4017 20.0932 20.874 20.0932ZM2.54085 7.52582C2.42358 7.52582 2.3454 7.604 2.3454 7.72127V19.116C2.3454 19.2333 2.42358 19.3114 2.54085 19.3114H20.874C20.9913 19.3114 21.0695 19.2333 21.0695 19.116V7.72127C21.0695 7.604 20.9913 7.52582 20.874 7.52582H2.54085Z" fill="#131313"/>
<path d="M0.977218 8.58124H19.3104C19.6427 8.58124 19.8967 8.83532 19.8967 9.16759V20.5623C19.8967 20.8946 19.6427 21.1487 19.3104 21.1487H0.977218C0.644954 21.1487 0.390869 20.8946 0.390869 20.5623V9.16759C0.390869 8.85487 0.644954 8.58124 0.977218 8.58124Z" fill="#9DBE87"/>
<path d="M19.3104 21.5395H0.977248C0.429989 21.5395 0 21.1095 0 20.5623V9.16756C0 8.6203 0.429989 8.19031 0.977248 8.19031H19.3104C19.8577 8.19031 20.2877 8.6203 20.2877 9.16756V20.5623C20.2877 21.1095 19.8381 21.5395 19.3104 21.5395ZM0.977248 8.97211C0.859979 8.97211 0.781799 9.05029 0.781799 9.16756V20.5623C0.781799 20.6795 0.859979 20.7577 0.977248 20.7577H19.3104C19.4277 20.7577 19.5059 20.6795 19.5059 20.5623V9.16756C19.5059 9.05029 19.4277 8.97211 19.3104 8.97211H0.977248Z" fill="#131313"/>
<path d="M16.8477 19.3896H3.4399C3.4399 18.471 2.67765 17.7088 1.75903 17.7088V11.8062C2.67765 11.8062 3.4399 11.0439 3.4399 10.1253H16.8477C16.8477 11.0439 17.61 11.8062 18.5286 11.8062V17.7088C17.5905 17.7088 16.8477 18.471 16.8477 19.3896Z" fill="#D6F0C5"/>
<path d="M16.8478 19.7805H3.43993C3.22494 19.7805 3.04903 19.6046 3.04903 19.3896C3.04903 18.686 2.46268 18.0996 1.75906 18.0996C1.54407 18.0996 1.36816 17.9237 1.36816 17.7087V11.8061C1.36816 11.5911 1.54407 11.4152 1.75906 11.4152C2.46268 11.4152 3.04903 10.8289 3.04903 10.1253C3.04903 9.91028 3.22494 9.73437 3.43993 9.73438H16.8478C17.0628 9.73438 17.2387 9.91028 17.2387 10.1253C17.2387 10.8289 17.825 11.4152 18.5286 11.4152C18.7436 11.4152 18.9195 11.5911 18.9195 11.8061V17.7087C18.9195 17.9237 18.7436 18.0996 18.5286 18.0996C17.825 18.0996 17.2387 18.686 17.2387 19.3896C17.2387 19.6046 17.0628 19.7805 16.8478 19.7805ZM3.79174 18.9987H16.4764C16.6328 18.1778 17.2973 17.5133 18.1182 17.3569V12.158C17.2973 12.0016 16.6328 11.3371 16.4764 10.5162H3.79174C3.63538 11.3371 2.97085 12.0016 2.14996 12.158V17.3374C2.97085 17.5133 3.63538 18.1778 3.79174 18.9987Z" fill="#131313"/>
<path d="M10.1829 17.4156C9.55751 17.4156 8.89298 17.181 8.4239 16.5751C8.28708 16.3992 8.32617 16.1647 8.48253 16.0279C8.65844 15.8911 8.89298 15.9301 9.02979 16.0865C9.49887 16.6924 10.222 16.7119 10.6911 16.5556C11.082 16.4188 11.3166 16.1647 11.3166 15.8911C11.3166 15.637 10.7107 15.4611 10.1829 15.3047C9.36206 15.0506 8.32617 14.7574 8.32617 13.7802C8.32617 13.3111 8.61935 12.8811 9.12752 12.627C9.75295 12.3143 10.8084 12.1971 11.8052 12.9202C11.9811 13.057 12.0202 13.2916 11.8834 13.4675C11.7465 13.6434 11.512 13.6825 11.3361 13.5457C10.6716 13.057 9.92886 13.0766 9.47932 13.3111C9.24479 13.4284 9.08843 13.6043 9.08843 13.7802C9.08843 14.1516 9.63569 14.3275 10.3784 14.562C11.1797 14.7965 12.0593 15.0702 12.0593 15.8911C12.0593 16.4969 11.6097 17.0442 10.9061 17.2983C10.7107 17.3569 10.437 17.4156 10.1829 17.4156Z" fill="#131313"/>
<path d="M10.1438 13.1548C9.92883 13.1548 9.75293 12.9789 9.75293 12.7639V11.9039C9.75293 11.6889 9.92883 11.513 10.1438 11.513C10.3588 11.513 10.5347 11.6889 10.5347 11.9039V12.7639C10.5347 12.9984 10.3588 13.1548 10.1438 13.1548Z" fill="#131313"/>
<path d="M10.1438 18.1583C9.92883 18.1583 9.75293 17.9824 9.75293 17.7674V17.1224C9.75293 16.9074 9.92883 16.7315 10.1438 16.7315C10.3588 16.7315 10.5347 16.9074 10.5347 17.1224V17.7674C10.5347 17.9824 10.3588 18.1583 10.1438 18.1583Z" fill="#131313"/>
<path d="M4.31946 14.992C4.31946 15.0869 4.33816 15.181 4.37451 15.2687C4.41085 15.3564 4.46412 15.4362 4.53127 15.5033C4.59842 15.5705 4.67814 15.6237 4.76588 15.6601C4.85362 15.6964 4.94765 15.7151 5.04262 15.7151C5.13759 15.7151 5.23163 15.6964 5.31936 15.6601C5.4071 15.6237 5.48682 15.5705 5.55398 15.5033C5.62113 15.4362 5.6744 15.3564 5.71074 15.2687C5.74708 15.181 5.76579 15.0869 5.76579 14.992C5.76579 14.8002 5.6896 14.6162 5.55398 14.4806C5.41836 14.345 5.23442 14.2688 5.04262 14.2688C4.85083 14.2688 4.66689 14.345 4.53127 14.4806C4.39565 14.6162 4.31946 14.8002 4.31946 14.992Z" fill="#AECD99"/>
<path d="M5.04259 16.0865C4.4367 16.0865 3.92853 15.5979 3.92853 14.9725C3.92853 14.347 4.41715 13.8584 5.04259 13.8584C5.64849 13.8584 6.15665 14.347 6.15665 14.9725C6.15665 15.5979 5.64849 16.0865 5.04259 16.0865ZM5.04259 14.6597C4.86669 14.6597 4.71033 14.7966 4.71033 14.992C4.71033 15.1875 4.84714 15.3243 5.04259 15.3243C5.2185 15.3243 5.37486 15.1875 5.37486 14.992C5.37486 14.7966 5.2185 14.6597 5.04259 14.6597Z" fill="#131313"/>
<path d="M14.561 14.992C14.561 15.1838 14.6372 15.3677 14.7728 15.5033C14.9084 15.6389 15.0923 15.7151 15.2841 15.7151C15.4759 15.7151 15.6599 15.6389 15.7955 15.5033C15.9311 15.3677 16.0073 15.1838 16.0073 14.992C16.0073 14.8002 15.9311 14.6162 15.7955 14.4806C15.6599 14.345 15.4759 14.2688 15.2841 14.2688C15.0923 14.2688 14.9084 14.345 14.7728 14.4806C14.6372 14.6162 14.561 14.8002 14.561 14.992Z" fill="#AECD99"/>
<path d="M15.2842 16.0865C14.6783 16.0865 14.1701 15.5979 14.1701 14.9725C14.1701 14.347 14.6587 13.8584 15.2842 13.8584C15.8901 13.8584 16.3982 14.347 16.3982 14.9725C16.3982 15.5979 15.8901 16.0865 15.2842 16.0865ZM15.2842 14.6597C15.1083 14.6597 14.9519 14.7966 14.9519 14.992C14.9519 15.1875 15.0887 15.3243 15.2842 15.3243C15.4796 15.3243 15.6164 15.1875 15.6164 14.992C15.6164 14.7966 15.4601 14.6597 15.2842 14.6597Z" fill="#131313"/>
</g>
<defs>
<clipPath id="clip0_601_2">
<rect width="25" height="25" fill="white"/>
</clipPath>
</defs>
</svg>
