<svg width="25" height="25" viewBox="0 0 25 25" fill="none" xmlns="http://www.w3.org/2000/svg">
<g clip-path="url(#clip0_604_2)">
<path d="M12.5 0C5.59648 0 0 5.59629 0 12.5C0 19.4037 5.59648 25 12.5 25C19.4035 25 25 19.4037 25 12.5C25 5.59629 19.4036 0 12.5 0ZM10.1405 18.4958C10.1405 17.6358 10.8378 16.9385 11.6978 16.9385C12.5571 16.9385 13.2544 17.6358 13.2544 18.4958C13.2544 19.3549 12.5571 20.0526 11.6978 20.0526C10.8378 20.0526 10.1405 19.3549 10.1405 18.4958ZM16.7786 10.6861C16.603 11.1643 16.3488 11.5792 16.061 11.9242C15.4826 12.615 14.797 13.0335 14.2328 13.3422C13.8559 13.546 13.5232 13.703 13.3164 13.8192C13.1745 13.8976 13.0977 13.9633 13.0597 14.0061C13.0222 14.0513 13.0095 14.0698 12.9867 14.144C12.9733 14.1933 12.9594 14.2716 12.9594 14.3926C12.9594 14.728 12.9594 15.0036 12.9594 15.0036C12.9594 15.3196 12.7032 15.5762 12.387 15.5762H11.0075C10.6914 15.5762 10.4347 15.3196 10.4347 15.0036C10.4347 15.0036 10.4347 14.7279 10.4347 14.3926C10.4347 14.0783 10.4714 13.7704 10.5521 13.4758C10.632 13.1824 10.7579 12.9036 10.9187 12.6606C11.2409 12.1683 11.6776 11.8402 12.0898 11.6118C12.4512 11.4129 12.8087 11.2478 13.1404 11.061C13.4719 10.8758 13.7675 10.6748 13.9852 10.4569C14.1311 10.3116 14.2445 10.1615 14.3312 9.99204C14.4453 9.76606 14.5244 9.50049 14.5262 9.09414C14.5268 8.97388 14.4921 8.81572 14.3977 8.63491C14.3036 8.45493 14.1503 8.25923 13.9453 8.08364C13.5327 7.72974 12.9276 7.47109 12.2337 7.47227C11.4385 7.4751 10.9062 7.66152 10.496 7.89316C10.0878 8.12637 9.95752 8.36167 9.95752 8.36167C9.74912 8.54321 9.43979 8.54966 9.22388 8.377L8.16382 7.52754C8.03106 7.42144 7.95278 7.26201 7.94917 7.0917C7.94609 6.92183 8.01875 6.75918 8.14746 6.64741C8.14746 6.64741 8.47778 6.13813 9.2437 5.70112C10.0064 5.26206 11.0172 4.94487 12.2337 4.94775C13.2208 4.94775 14.1302 5.21934 14.8835 5.66362C15.6372 6.1103 16.2457 6.72534 16.6341 7.46421C16.8919 7.9561 17.0503 8.5106 17.0507 9.09409C17.0513 9.67002 16.9555 10.2079 16.7786 10.6861Z" fill="#1F1F1F"/>
</g>
<defs>
<clipPath id="clip0_604_2">
<rect width="25" height="25" fill="white"/>
</clipPath>
</defs>
</svg>
